<?xml version="1.0" encoding="utf-8"?>
<!-- Generator: Adobe Illustrator 25.1.0, SVG Export Plug-In . SVG Version: 6.00 Build 0)  -->
<svg version="1.1" id="레이어_1" xmlns="http://www.w3.org/2000/svg" xmlns:xlink="http://www.w3.org/1999/xlink" x="0px"
	 y="0px" viewBox="0 0 24 24" style="enable-background:new 0 0 24 24;" xml:space="preserve">
<style type="text/css">
	.st0{fill:#212121;}
	.st1{fill:#FFFFFF;}
</style>
<path class="st0" d="M11.929,0C5.302,0.039-0.039,5.444,0,12.071S5.444,24.039,12.071,24C18.698,23.961,24.039,18.556,24,11.929
	C23.961,5.357,18.643,0.039,12.071,0H11.929z"/>
<path class="st1" d="M18.28,12.757c0,0.643,0.52,1.173,1.16,1.173c0.304,0,0.56,0.249,0.56,0.554c0,3.084-0.928,4.016-4.001,4.016
	h-4.201v-1.277c0-0.313-0.24-0.57-0.544-0.594c-0.016-0.008-0.04-0.008-0.056-0.008c-0.328,0-0.6,0.273-0.6,0.602V18.5H9.19
	c-1.504,0-2.28-1.133-2.985-2.843l-0.136-0.337c-0.112-0.289,0.024-0.618,0.312-0.731c0.296-0.112,0.528-0.345,0.648-0.651
	c0.128-0.297,0.128-0.627,0.008-0.924c-0.256-0.618-0.96-0.916-1.584-0.667c-0.136,0.064-0.296,0.064-0.432,0
	c-0.136-0.056-0.24-0.169-0.304-0.313l-0.12-0.321C3.405,8.805,3.925,7.56,6.821,6.355l1.96-0.811C9.07,5.423,9.398,5.56,9.51,5.849
	l1.744,3.815c-0.328,0-0.656,0.265-0.656,0.594v3.486c0,0.329,0.272,0.602,0.6,0.602c0.016,0,0.04,0,0.056-0.008
	c0.304-0.024,0.544-0.281,0.544-0.594v-3.486c0-0.313-0.24-0.57-0.544-0.594V6.323h4.745c3.073,0,4.001,0.932,4.001,4.016v0.683
	c0,0.313-0.256,0.562-0.56,0.562C18.8,11.584,18.28,12.106,18.28,12.757z"/>
</svg>
