<?xml version="1.0" encoding="utf-8"?>
<!-- Generator: Adobe Illustrator 25.1.0, SVG Export Plug-In . SVG Version: 6.00 Build 0)  -->
<svg version="1.1" id="레이어_1" xmlns="http://www.w3.org/2000/svg" xmlns:xlink="http://www.w3.org/1999/xlink" x="0px"
	 y="0px" viewBox="0 0 108 19" style="enable-background:new 0 0 108 19;" xml:space="preserve">
<style type="text/css">
	.st0{fill-rule:evenodd;clip-rule:evenodd;fill:#212121;}
</style>
<path class="st0" d="M52.8,0.8c0.5-1.1,2-1.1,2.4,0l2.1,5l5.5,0.4c1.2,0.1,1.7,1.5,0.8,2.3l-4.2,3.5l1.3,5.3c0.3,1.1-1,2-2,1.4
	L54,16l-4.7,2.8c-1,0.6-2.3-0.3-2-1.4l1.3-5.3l-4.2-3.5c-0.9-0.8-0.4-2.2,0.8-2.3l5.5-0.4L52.8,0.8z"/>
<path class="st0" d="M30.8,0.8c0.5-1.1,2-1.1,2.4,0l2.1,5l5.5,0.4c1.2,0.1,1.7,1.5,0.8,2.3l-4.2,3.5l1.3,5.3c0.3,1.1-1,2-2,1.4
	L32,16l-4.7,2.8c-1,0.6-2.3-0.3-2-1.4l1.3-5.3l-4.2-3.5c-0.9-0.8-0.4-2.2,0.8-2.3l5.5-0.4L30.8,0.8z"/>
<path class="st0" d="M8.8,0.8c0.5-1.1,2-1.1,2.4,0l2.1,5l5.5,0.4c1.2,0.1,1.7,1.5,0.8,2.3l-4.2,3.5l1.3,5.3c0.3,1.1-1,2-2,1.4L10,16
	l-4.7,2.8c-1,0.6-2.3-0.3-2-1.4l1.3-5.3L0.5,8.6C-0.4,7.8,0,6.3,1.2,6.3l5.5-0.4L8.8,0.8z"/>
<path class="st0" d="M74.8,0.8c0.5-1.1,2-1.1,2.4,0l2.1,5l5.5,0.4c1.2,0.1,1.7,1.5,0.8,2.3l-4.2,3.5l1.3,5.3c0.3,1.1-1,2-2,1.4
	L76,16l-4.7,2.8c-1,0.6-2.3-0.3-2-1.4l1.3-5.3l-4.2-3.5c-0.9-0.8-0.4-2.2,0.8-2.3l5.5-0.4L74.8,0.8z"/>
<path class="st0" d="M96.8,0.8c0.5-1.1,2-1.1,2.4,0l2.1,5l5.5,0.4c1.2,0.1,1.7,1.5,0.8,2.3l-4.2,3.5l1.3,5.3c0.3,1.1-1,2-2,1.4
	L98,16l-4.7,2.8c-1,0.6-2.3-0.3-2-1.4l1.3-5.3l-4.2-3.5c-0.9-0.8-0.4-2.2,0.8-2.3l5.5-0.4L96.8,0.8z"/>
</svg>
