<?xml version="1.0" encoding="utf-8"?>
<!-- Generator: Adobe Illustrator 26.2.1, SVG Export Plug-In . SVG Version: 6.00 Build 0)  -->
<svg version="1.1" id="레이어_1" xmlns="http://www.w3.org/2000/svg" xmlns:xlink="http://www.w3.org/1999/xlink" x="0px"
	 y="0px" viewBox="0 0 40 20" style="enable-background:new 0 0 40 20;" xml:space="preserve">
<style type="text/css">
	.st0{fill:#212121;}
</style>
<g>
	<path class="st0" d="M11.767,3.661v12.186c0,1.442-1.168,2.612-2.61,2.612c-1.442,0-2.612-1.17-2.612-2.612V3.661
		c0-1.442,1.17-2.612,2.612-2.612c0.721,0,1.374,0.293,1.846,0.766C11.474,2.287,11.767,2.94,11.767,3.661z"/>
	<path class="st0" d="M30.306,18.458L30.306,18.458c-1.442,0-2.611-1.169-2.611-2.611V3.661c0-1.442,1.169-2.611,2.611-2.611l0,0
		c1.442,0,2.611,1.169,2.611,2.611v12.187C32.917,17.289,31.748,18.458,30.306,18.458z"/>
	<path class="st0" d="M17.907,10.291v5.556c0,1.442-1.168,2.612-2.61,2.612c-1.442,0-2.612-1.17-2.612-2.612v-5.556
		c0-1.442,1.17-2.612,2.612-2.612c0.721,0,1.373,0.293,1.846,0.766C17.614,8.917,17.907,9.57,17.907,10.291z"/>
	<path class="st0" d="M22.959,18.458L22.959,18.458c-2.136,0-3.868-1.732-3.868-3.868v0c0-2.136,1.732-3.868,3.868-3.868l0,0
		c2.136,0,3.868,1.732,3.868,3.868v0C26.827,16.727,25.095,18.458,22.959,18.458z"/>
</g>
<g>
	<path class="st0" d="M10.584,16.678c-0.564-0.624-0.987-1.358-1.344-2.116c-1.177-2.497-1.597-5.315-1.589-8.059
		c0.005-1.785,0.214-3.693,0.901-5.38c-1.15,0.273-2.005,1.304-2.005,2.538v12.187c0,1.442,1.169,2.611,2.611,2.611
		c0.867,0,1.632-0.424,2.107-1.074C11.038,17.148,10.801,16.919,10.584,16.678z"/>
	<path class="st0" d="M32.715,14.829c-0.074-0.703-0.235-1.411-0.506-2.065c-0.282-0.68-0.67-1.313-1.046-1.943
		c-0.753-1.263-1.487-2.575-1.851-4.01c-0.305-1.202-0.369-2.529-0.297-3.764c0.034-0.589,0.108-1.2,0.262-1.785
		c-0.93,0.4-1.582,1.323-1.582,2.4v12.187c0,1.442,1.169,2.611,2.611,2.611h0c1.139,0,2.105-0.73,2.462-1.747
		C32.792,16.083,32.781,15.454,32.715,14.829z"/>
	<path class="st0" d="M16.147,16.624c-0.958-1.431-1.633-3.054-1.92-4.755c-0.22-1.302-0.225-2.616-0.083-3.919
		c-0.863,0.426-1.458,1.312-1.458,2.34v5.557c0,1.442,1.169,2.611,2.611,2.611c0.664,0,1.268-0.25,1.729-0.658
		C16.715,17.422,16.42,17.031,16.147,16.624z"/>
	<path class="st0" d="M24.45,17.443c-1.669-0.597-3.055-1.938-3.733-3.572c-0.28-0.676-0.414-1.401-0.371-2.128
		c-0.77,0.707-1.255,1.719-1.255,2.846c0,2.136,1.732,3.868,3.868,3.868l0,0c0.883,0,1.695-0.299,2.346-0.797
		C25.014,17.613,24.728,17.542,24.45,17.443z"/>
</g>
<path class="st0" d="M2.686,13.367c-0.054-0.061-0.106-0.126-0.156-0.198c-0.656-0.937-0.598-2.268,0.131-3.028
	C3.46,9.307,4.426,9.01,5.544,8.665l0.271-0.084c0.113-0.035,0.176-0.155,0.141-0.268C5.92,8.2,5.801,8.138,5.688,8.173L5.418,8.256
	c-1.126,0.347-2.19,0.675-3.066,1.589c-0.865,0.903-0.941,2.471-0.172,3.57c0.124,0.177,0.257,0.325,0.398,0.448
	C2.593,13.692,2.627,13.526,2.686,13.367z"/>
<path class="st0" d="M23.437,8.942c-6.302,1.596-12.409,3.28-17.179,4.614l-0.22,0.062c-0.909,0.258-1.839,0.52-2.605,0.256
	c0,0.001,0,0.001-0.001,0.002c-0.014,0.148-0.01,0.296-0.002,0.444c0.23,0.062,0.469,0.089,0.711,0.089
	c0.675,0,1.381-0.2,2.012-0.379l0.219-0.062c4.765-1.332,10.863-3.014,17.157-4.608C23.489,9.223,23.46,9.082,23.437,8.942z"/>
<path class="st0" d="M11.767,12.471v0.443c-1.859,0.509-3.616,0.997-5.222,1.446v-0.441C8.152,13.468,9.908,12.98,11.767,12.471z"/>
<path class="st0" d="M17.907,10.815v0.443c-1.797,0.477-3.547,0.948-5.222,1.406v-0.445C14.36,11.763,16.11,11.292,17.907,10.815z"
	/>
<path class="st0" d="M32.918,7.125v0.443c-1.807,0.422-3.494,0.759-5.222,1.182V8.305C29.387,7.891,31.12,7.545,32.918,7.125z"/>
<path class="st0" d="M39.289,8.13c-0.084-0.709-0.447-1.309-1.023-1.689c-1.221-0.807-2.784-0.39-4.163-0.023
	c-0.356,0.095-0.692,0.185-1.005,0.248c-2.395,0.487-4.814,1.069-7.071,1.627c-0.589,0.145-1.176,0.292-1.763,0.44
	c0.023,0.141,0.054,0.281,0.098,0.416c0.588-0.148,1.177-0.295,1.767-0.441c2.253-0.556,4.667-1.138,7.054-1.623
	c0.325-0.066,0.667-0.157,1.03-0.254c1.292-0.345,2.756-0.735,3.817-0.034c0.469,0.31,0.765,0.8,0.833,1.382
	c0.074,0.628-0.135,1.273-0.559,1.727c-0.706,0.755-2.225,1.157-3.564,1.512c-0.551,0.146-1.071,0.283-1.482,0.434
	c-0.111,0.041-0.168,0.164-0.127,0.275c0.041,0.111,0.164,0.168,0.274,0.127c0.393-0.144,0.904-0.279,1.444-0.422
	c1.396-0.369,2.978-0.788,3.768-1.633C39.126,9.655,39.378,8.881,39.289,8.13z"/>
<circle class="st0" cx="4.223" cy="13.874" r="1.445"/>
<circle class="st0" cx="24.742" cy="8.75" r="1.022"/>
</svg>
