<?xml version="1.0" encoding="utf-8"?>
<!-- Generator: Adobe Illustrator 25.1.0, SVG Export Plug-In . SVG Version: 6.00 Build 0)  -->
<svg version="1.1" id="레이어_1" xmlns="http://www.w3.org/2000/svg" xmlns:xlink="http://www.w3.org/1999/xlink" x="0px"
	 y="0px" viewBox="0 0 24 24" style="enable-background:new 0 0 24 24;" xml:space="preserve">
<style type="text/css">
	.st0{fill:#212121;}
	.st1{fill:#FFFFFF;}
</style>
<path class="st0" d="M11.929,0C5.302,0.039-0.039,5.444,0,12.071S5.444,24.039,12.071,24C18.698,23.961,24.039,18.556,24,11.929
	C23.961,5.357,18.643,0.039,12.071,0H11.929z"/>
<path class="st1" d="M12.004,8.539l6.351,5.743V17c0,1.381-1.034,2.5-2.31,2.5H7.962c-1.275,0-2.31-1.119-2.31-2.5v-2.718
	L12.004,8.539z M13.737,17v-3.125c0-0.345-0.258-0.625-0.577-0.625h-2.31c-0.319,0-0.577,0.28-0.577,0.625V17H13.737z"/>
<path class="st1" d="M18.356,10.333l-2.31-2.083V6.584c0-0.46,0.345-0.833,0.77-0.833h0.77c0.425,0,0.77,0.373,0.77,0.833V10.333z"
	/>
<path class="st1" d="M19.055,10.403c0.489,0.442,0.602,1.238,0.204,1.777c-0.229,0.31-0.565,0.47-0.903,0.47
	c-0.261,0-0.524-0.095-0.74-0.291L12.19,7.452c-0.107-0.097-0.263-0.097-0.37,0l-5.426,4.907c-0.549,0.497-1.401,0.347-1.762-0.375
	c-0.262-0.525-0.118-1.182,0.305-1.565l6.143-5.556c0.536-0.485,1.315-0.485,1.851,0L19.055,10.403z"/>
</svg>
