<?xml version="1.0" encoding="utf-8"?>
<!-- Generator: Adobe Illustrator 25.1.0, SVG Export Plug-In . SVG Version: 6.00 Build 0)  -->
<svg version="1.1" id="레이어_1" xmlns="http://www.w3.org/2000/svg" xmlns:xlink="http://www.w3.org/1999/xlink" x="0px"
	 y="0px" viewBox="0 0 24 24" style="enable-background:new 0 0 24 24;" xml:space="preserve">
<style type="text/css">
	.st0{fill:#212121;}
</style>
<path class="st0" d="M11.929,0C5.302,0.039-0.039,5.444,0,12.071S5.444,24.039,12.071,24C18.698,23.961,24.039,18.556,24,11.929
	C23.961,5.357,18.643,0.039,12.071,0H11.929z M11.929,6.107c2.98,0.039,5.364,2.487,5.325,5.467
	c-0.039,2.98-2.487,5.364-5.467,5.325s-5.364-2.487-5.325-5.467c0.038-2.925,2.4-5.287,5.325-5.325H11.929z M3.976,20.343
	c1.278-1.657,2.864-2.485,4.757-2.485h6.533c1.893,0,3.479,0.828,4.757,2.485C15.528,24.617,8.472,24.617,3.976,20.343"/>
</svg>
